<svg xmlns="http://www.w3.org/2000/svg" viewBox="0 0 1440 1440" width="1440" height="1440" role="img" aria-label="Open book icon">
  <path fill="#FF0000" fill-rule="evenodd" d="M50.5,1436.14C37.35,1432.66 35.98,1432.06 28.0,1426.28C21.53,1421.6 18.06,1418.13 13.5,1411.81C7.83,1403.95 7.31,1402.72 3.78,1389.0L0.06,1374.5L0.02,720.5L-0.02,66.5L3.61,51.73C7.13,37.44 7.45,36.68 13.48,28.34C18.32,21.64 21.64,18.32 28.34,13.48C36.68,7.45 37.44,7.13 51.73,3.61L66.5,-0.02L720.0,-0.02L1373.5,-0.02L1388.13,3.58C1402.23,7.05 1403.09,7.41 1411.52,13.43C1418.42,18.36 1421.58,21.5 1426.51,28.32C1432.55,36.69 1432.87,37.43 1436.39,51.73L1440.02,66.5L1440.02,720.0L1440.02,1373.5L1436.39,1388.27C1432.87,1402.57 1432.55,1403.31 1426.51,1411.68C1421.58,1418.51 1418.42,1421.64 1411.5,1426.58C1403.0,1432.66 1402.29,1432.95 1387.92,1436.42L1373.11,1440.0L718.8,1439.92L64.5,1439.84L50.5,1436.14Z"/>
  <path fill="#FFFFFF" fill-rule="evenodd" d="M656.0,1117.34C654.62,1117.11 645.62,1114.27 636.0,1111.03C616.32,1104.42 597.11,1098.45 583.0,1094.57C577.77,1093.13 572.15,1091.55 570.5,1091.05C567.78,1090.23 560.61,1088.5 539.08,1083.51C527.69,1080.86 509.7,1077.95 486.0,1074.91C460.23,1071.61 410.57,1075.01 366.5,1083.09C337.34,1088.44 296.81,1097.78 278.0,1103.5C275.52,1104.25 269.45,1106.07 264.5,1107.55C259.55,1109.03 251.47,1111.53 246.54,1113.12C235.87,1116.55 229.6,1116.75 221.2,1113.91C213.63,1111.35 205.99,1104.81 202.19,1097.61L199.5,1092.5L199.5,742.0L199.5,391.5L201.82,386.38C204.26,380.99 208.5,376.36 213.5,373.65C221.67,369.21 258.33,355.84 277.5,350.3C319.38,338.21 350.58,331.64 388.0,327.03C397.07,325.92 405.62,324.78 407.0,324.5C408.38,324.22 420.77,323.55 434.54,323.0C503.95,320.22 564.7,329.84 620.5,352.45C645.21,362.47 674.49,379.28 683.68,388.74C686.11,391.24 688.4,394.79 688.99,396.94C689.68,399.51 689.93,513.92 689.75,749.12C689.5,1090.83 689.46,1097.57 687.57,1101.38C685.12,1106.32 679.13,1112.1 673.71,1114.74C669.45,1116.81 660.58,1118.12 656.0,1117.34ZM772.67,1116.89C764.69,1115.3 756.03,1108.63 752.36,1101.24C750.56,1097.62 750.49,1086.31 750.25,749.12C750.07,513.92 750.32,399.51 751.01,396.94C751.6,394.79 753.89,391.24 756.32,388.74C769.24,375.44 811.38,353.78 845.0,343.16C896.93,326.75 945.76,320.65 1006.0,323.04C1020.02,323.6 1032.17,324.25 1033.0,324.48C1033.83,324.72 1040.8,325.61 1048.5,326.46C1062.4,328.0 1068.08,328.9 1094.0,333.66C1114.61,337.44 1135.75,342.58 1162.5,350.3C1181.69,355.85 1218.35,369.22 1226.5,373.65C1231.0,376.1 1234.93,380.03 1237.34,384.5L1239.49,388.5L1240.24,627.0C1240.65,758.17 1240.87,916.58 1240.74,979.0L1240.5,1092.5L1237.81,1097.61C1234.01,1104.81 1226.37,1111.35 1218.8,1113.91C1210.4,1116.75 1204.13,1116.55 1193.46,1113.12C1188.53,1111.53 1180.45,1109.03 1175.5,1107.55C1170.55,1106.07 1164.47,1104.25 1162.0,1103.5C1143.19,1097.78 1102.66,1088.44 1073.5,1083.09C1029.31,1074.99 979.78,1071.6 954.0,1074.91C930.14,1077.98 912.29,1080.87 900.92,1083.51C879.39,1088.5 872.22,1090.23 869.5,1091.05C867.85,1091.55 862.23,1093.13 857.0,1094.57C843.79,1098.2 824.62,1104.15 804.0,1111.01C784.78,1117.41 779.88,1118.32 772.67,1116.89Z"/>
  <path fill="#000000" fill-rule="evenodd" d="M50.5,1436.14C37.35,1432.66 35.98,1432.06 28.0,1426.28C21.53,1421.6 18.06,1418.13 13.5,1411.81C7.83,1403.95 7.31,1402.72 3.78,1389.0L0.06,1374.5L0.02,720.5L-0.02,66.5L3.61,51.73C7.13,37.44 7.45,36.68 13.48,28.34C18.32,21.64 21.64,18.32 28.34,13.48C36.68,7.45 37.44,7.13 51.73,3.61L66.5,-0.02L720.0,-0.02L1373.5,-0.02L1388.13,3.58C1402.23,7.05 1403.09,7.41 1411.52,13.43C1418.42,18.36 1421.58,21.5 1426.51,28.32C1432.55,36.69 1432.87,37.43 1436.39,51.73L1440.02,66.5L1440.02,720.0L1440.02,1373.5L1436.39,1388.27C1432.87,1402.57 1432.55,1403.31 1426.51,1411.68C1421.58,1418.51 1418.42,1421.64 1411.5,1426.58C1403.0,1432.66 1402.29,1432.95 1387.92,1436.42L1373.11,1440.0L718.8,1439.92L64.5,1439.84L50.5,1436.14ZM1373.0,720.0L1373.0,67.0L720.0,67.0L67.0,67.0L67.0,720.0L67.0,1373.0L720.0,1373.0L1373.0,1373.0L1373.0,720.0ZM772.5,1164.35C760.45,1162.12 749.75,1158.9 742.75,1155.37C736.61,1152.28 724.25,1142.87 721.31,1139.04C720.28,1137.71 719.48,1138.12 715.31,1142.11C708.06,1149.06 699.45,1154.97 692.73,1157.6C684.82,1160.7 665.52,1165.0 659.5,1165.0C652.95,1165.0 633.32,1159.65 602.5,1149.47C588.2,1144.74 574.02,1140.24 571.0,1139.48C567.98,1138.71 561.45,1136.94 556.5,1135.55C538.18,1130.42 520.23,1126.93 497.5,1124.09C474.53,1121.22 457.01,1120.74 432.0,1122.26C402.88,1124.05 355.91,1131.42 326.0,1138.9C310.09,1142.88 288.86,1148.91 272.5,1154.09C267.55,1155.66 258.55,1158.09 252.5,1159.5C246.45,1160.9 240.15,1162.38 238.5,1162.78C232.62,1164.22 212.04,1160.62 199.72,1156.0C188.87,1151.93 175.41,1141.28 166.69,1129.86C162.63,1124.54 157.78,1112.8 154.99,1101.5L152.02,1089.5L152.01,741.16L152.0,392.83L155.53,379.16C159.89,362.31 162.7,357.31 174.5,345.46C182.01,337.91 185.15,335.57 193.5,331.3C214.16,320.72 250.55,308.61 294.83,297.58C313.44,292.94 341.05,286.86 352.0,284.99C355.57,284.38 362.1,283.25 366.5,282.49C375.62,280.91 380.0,280.3 388.5,279.43C391.8,279.1 395.62,278.67 397.0,278.49C420.64,275.36 484.17,274.43 503.5,276.94C509.0,277.65 515.3,278.41 517.5,278.62C525.1,279.34 552.54,284.16 563.5,286.69C618.7,299.45 656.94,314.1 690.5,335.34C700.61,341.74 712.57,350.38 716.63,354.21L719.76,357.16L728.13,350.4C767.69,318.44 831.54,293.33 903.0,281.61C933.05,276.68 941.18,275.95 972.5,275.33C993.46,274.92 1005.7,275.19 1021.21,276.4C1039.0,277.79 1065.68,280.89 1072.62,282.38C1073.79,282.63 1076.49,283.11 1078.62,283.44C1083.27,284.15 1092.53,285.8 1096.0,286.53C1097.38,286.82 1101.88,287.72 1106.0,288.52C1142.07,295.59 1209.13,314.63 1227.62,323.06C1229.97,324.13 1232.37,325.0 1232.96,325.0C1233.55,325.0 1234.81,325.4 1235.76,325.88C1236.72,326.36 1239.3,327.52 1241.5,328.46C1255.58,334.45 1273.0,350.13 1278.84,362.07C1280.57,365.61 1283.21,373.0 1284.72,378.5L1287.45,388.5L1287.73,738.72L1288.02,1088.93L1285.59,1099.22C1282.29,1113.19 1279.7,1119.73 1274.3,1127.73C1268.28,1136.65 1264.92,1140.19 1256.49,1146.49C1246.56,1153.9 1241.21,1156.35 1227.13,1159.89C1210.13,1164.16 1204.41,1164.04 1185.5,1158.97C1177.25,1156.76 1170.05,1154.83 1169.5,1154.7C1168.95,1154.56 1167.99,1154.13 1167.37,1153.74C1166.75,1153.35 1163.6,1152.38 1160.37,1151.58C1157.14,1150.78 1150.0,1148.8 1144.5,1147.19C1139.0,1145.57 1133.15,1143.95 1131.5,1143.59C1129.85,1143.23 1126.25,1142.28 1123.5,1141.48C1107.18,1136.75 1074.4,1130.11 1052.5,1127.09C993.12,1118.91 960.97,1119.46 907.74,1129.6C895.41,1131.94 868.66,1139.55 836.0,1149.98C816.18,1156.32 800.95,1160.97 798.5,1161.43C797.95,1161.54 796.55,1161.94 795.39,1162.34C787.91,1164.86 779.33,1165.61 772.5,1164.35ZM673.88,1115.06C680.23,1111.82 684.68,1107.36 687.71,1101.18L690.5,1095.5L690.5,747.0L690.5,398.5L688.3,394.39C678.75,376.54 621.23,348.15 568.08,335.05C530.23,325.72 502.66,322.6 458.0,322.6C405.68,322.59 366.37,327.44 312.0,340.58C272.52,350.12 218.6,368.69 209.36,375.92C205.44,378.99 201.21,385.49 200.27,389.87C199.85,391.86 199.5,551.0 199.5,743.5L199.5,1093.5L202.24,1098.16C206.61,1105.59 209.48,1108.44 216.17,1112.01C221.28,1114.73 223.86,1115.44 229.97,1115.78C236.92,1116.17 239.03,1115.74 257.5,1110.17C317.23,1092.15 374.77,1080.23 422.62,1075.95C439.61,1074.43 476.87,1074.41 489.76,1075.91C529.78,1080.57 574.33,1091.29 631.5,1110.01C643.05,1113.79 653.4,1117.11 654.5,1117.39C658.7,1118.45 669.86,1117.11 673.88,1115.06ZM810.0,1109.54C894.79,1081.87 948.05,1072.22 1000.68,1074.98C1022.01,1076.1 1021.28,1076.03 1043.28,1079.01C1089.64,1085.29 1138.43,1096.41 1190.77,1112.63C1206.28,1117.44 1212.74,1117.42 1222.61,1112.54C1230.17,1108.81 1233.18,1105.95 1237.76,1098.16L1240.5,1093.5L1240.5,742.5C1240.5,407.08 1240.42,391.29 1238.7,386.84C1235.85,379.45 1229.32,374.16 1216.5,368.85C1176.85,352.43 1128.01,338.79 1079.5,330.58C1003.72,317.76 937.68,319.18 872.39,335.04C819.58,347.88 761.23,376.59 751.67,394.46L749.5,398.5L749.24,745.69C748.99,1091.62 748.99,1092.91 751.0,1098.27C754.39,1107.34 761.43,1113.97 771.0,1117.12C776.98,1119.09 786.25,1117.29 810.0,1109.54Z"/>
</svg>
